<svg width="24" height="16" viewBox="0 0 24 16" fill="none" xmlns="http://www.w3.org/2000/svg">
<path fill-rule="evenodd" clip-rule="evenodd" d="M2 8C2 4.68629 4.68629 2 8 2H16C19.3137 2 22 4.68629 22 8C22 11.3137 19.3137 14 16 14H8C4.68629 14 2 11.3137 2 8ZM8 0C3.58172 0 0 3.58172 0 8C0 12.4183 3.58172 16 8 16H16C20.4183 16 24 12.4183 24 8C24 3.58172 20.4183 0 16 0H8ZM6 8C6 6.89543 6.89543 6 8 6C9.10457 6 10 6.89543 10 8C10 9.10457 9.10457 10 8 10C6.89543 10 6 9.10457 6 8ZM8 4C5.79086 4 4 5.79086 4 8C4 10.2091 5.79086 12 8 12C10.2091 12 12 10.2091 12 8C12 5.79086 10.2091 4 8 4Z" fill="#2A2A2A"/>
</svg>
